<?xml version="1.0" encoding="iso-8859-1"?>
<!-- Generator: Adobe Illustrator 16.0.0, SVG Export Plug-In . SVG Version: 6.00 Build 0)  -->
<!DOCTYPE svg PUBLIC "-//W3C//DTD SVG 1.1//EN" "http://www.w3.org/Graphics/SVG/1.1/DTD/svg11.dtd">
<svg xmlns="http://www.w3.org/2000/svg" xmlns:xlink="http://www.w3.org/1999/xlink" version="1.1" id="Capa_1" x="0px" y="0px" width="512px" height="512px" viewBox="0 0 435.933 435.932" style="enable-background:new 0 0 435.933 435.932;" xml:space="preserve">
<g>
	<path d="M434.673,259.13l0.041,0.033c-0.106,0.57-0.237,1.099-0.353,1.658c-0.185,0.995-0.376,1.909-0.575,2.784   c-0.099,0.372-0.169,0.783-0.262,1.155c-1.149,4.815-2.288,7.627-2.288,7.627s-0.07-0.065-0.173-0.15   c-8.307,20.885-26.667,33.963-45.271,27.171l-41.164-17.159c-22.191-8.093-36.252-38.277-31.423-67.423l0.396-2.353   c-50.36-14.019-114.919-19.461-189.768,1.727l0.917,5.513c4.837,29.147-9.229,59.319-31.408,67.42l-41.166,12.879   c-21.636,7.896-42.956-6.029-48.488-33.866c-5.165-16.378-32.082-127.938,193.239-132.258   C434.471,129.348,440.692,223.611,434.673,259.13z" fill="#B7C3D0"/>
</g>
<g>
</g>
<g>
</g>
<g>
</g>
<g>
</g>
<g>
</g>
<g>
</g>
<g>
</g>
<g>
</g>
<g>
</g>
<g>
</g>
<g>
</g>
<g>
</g>
<g>
</g>
<g>
</g>
<g>
</g>
</svg>
