<?xml version="1.0" encoding="iso-8859-1"?>
<!-- Generator: Adobe Illustrator 19.0.0, SVG Export Plug-In . SVG Version: 6.00 Build 0)  -->
<svg xmlns="http://www.w3.org/2000/svg" xmlns:xlink="http://www.w3.org/1999/xlink" version="1.1" id="Layer_1" x="0px" y="0px" viewBox="0 0 512 512" style="enable-background:new 0 0 512 512;" xml:space="preserve" width="512px" height="512px">
<g>
	<g>
		<path d="M336.496,307.984c-0.666-0.316-1.357-0.538-2.048-0.674c20.595-182.329-41.029-271.982-72.259-304.774    c-3.226-3.38-9.133-3.38-12.359,0c-31.239,32.792-92.871,122.446-72.276,304.774c-0.691,0.137-1.383,0.358-2.048,0.674    c-66.788,31.853-47.797,97.651-29.446,161.281c2.68,9.278,5.369,18.598,7.801,27.833c0.905,3.44,3.841,5.949,7.374,6.316    c3.585,0.367,6.922-1.494,8.518-4.669l29.37-58.739l-11.258,61.931c-0.743,4.08,1.562,8.108,5.454,9.534    c0.964,0.358,1.955,0.529,2.945,0.529c2.979,0,5.83-1.562,7.391-4.268c4.191-7.246,16.114-21.953,25.734-21.568    c6.265,0.316,12.956,7.699,18.837,20.8c1.383,3.064,4.43,5.036,7.784,5.036c3.354,0,6.401-1.972,7.784-5.036    c5.881-13.084,12.564-20.467,18.829-20.8c10.268-0.555,22.388,15.807,25.759,21.577c2.074,3.576,6.435,5.147,10.328,3.721    c3.892-1.434,6.188-5.454,5.445-9.525l-11.258-61.931l29.37,58.739c1.596,3.184,4.976,5.036,8.518,4.669    c3.534-0.367,6.47-2.876,7.374-6.316c2.433-9.244,5.121-18.555,7.801-27.833C384.293,405.635,403.275,339.837,336.496,307.984z     M256,341.296c-18.829,0-34.141-15.312-34.141-34.141s15.312-34.141,34.141-34.141s34.141,15.312,34.141,34.141    S274.82,341.296,256,341.296z M256,255.945c-18.829,0-34.141-15.312-34.141-34.141s15.312-34.141,34.141-34.141    s34.141,15.312,34.141,34.141S274.82,255.945,256,255.945z M256,170.593c-18.829,0-34.141-15.312-34.141-34.141    s15.312-34.141,34.141-34.141s34.141,15.312,34.141,34.141S274.82,170.593,256,170.593z" fill="#747678"/>
	</g>
</g>
<g>
</g>
<g>
</g>
<g>
</g>
<g>
</g>
<g>
</g>
<g>
</g>
<g>
</g>
<g>
</g>
<g>
</g>
<g>
</g>
<g>
</g>
<g>
</g>
<g>
</g>
<g>
</g>
<g>
</g>
</svg>
